<svg width="50" height="50" viewBox="0 0 50 50" fill="none" xmlns="http://www.w3.org/2000/svg">
<g clip-path="url(#clip0_30_178)">
<path d="M25 0C22.706 2.6608 20.1892 5.12111 17.4771 7.35417C19.3305 13.0525 20.2727 19.0078 20.2687 25C20.2687 31.1417 19.2896 37.0667 17.4771 42.6458C20.1892 44.8789 22.706 47.3392 25 50C27.294 47.3392 29.8108 44.8789 32.5229 42.6458C30.6695 36.9475 29.7273 30.9922 29.7312 25C29.7312 18.8583 30.7104 12.9333 32.5229 7.35417C29.8108 5.12111 27.294 2.6608 25 0ZM25 0C22.706 2.6608 20.1892 5.12111 17.4771 7.35417C19.3305 13.0525 20.2727 19.0078 20.2687 25C20.2687 31.1417 19.2896 37.0667 17.4771 42.6458C20.1892 44.8789 22.706 47.3392 25 50C27.294 47.3392 29.8108 44.8789 32.5229 42.6458C30.6695 36.9475 29.7273 30.9922 29.7312 25M25 0C22.706 2.6608 20.1892 5.12111 17.4771 7.35417C19.3305 13.0525 20.2727 19.0078 20.2687 25C20.2687 31.1417 19.2896 37.0667 17.4771 42.6458C20.1892 44.8789 22.706 47.3392 25 50C27.294 47.3392 29.8108 44.8789 32.5229 42.6458C30.6695 36.9475 29.7273 30.9922 29.7312 25" fill="#BE5B71"/>
<path d="M36.0416 25C36.0391 20.3519 36.6052 15.721 37.7271 11.2104C40.6335 13.1404 43.693 14.8294 46.875 16.2604C45.9854 19.025 45.5062 21.9583 45.5062 25C45.5042 27.9667 45.966 30.9155 46.875 33.7396C43.693 35.1705 40.6335 36.8595 37.7271 38.7896C36.625 34.3625 36.0416 29.7458 36.0416 25Z" fill="white"/>
<path d="M3.125 16.2604C6.30694 14.8294 9.36645 13.1404 12.2729 11.2104C13.375 15.6375 13.9583 20.2541 13.9583 25C13.9583 29.7458 13.375 34.3625 12.2729 38.7896C9.36647 36.8595 6.30696 35.1705 3.125 33.7396C4.01458 30.975 4.49375 28.0416 4.49375 25C4.49549 22.0333 4.03367 19.0845 3.125 16.2604Z" fill="white"/>
</g>
<defs>
<clipPath id="clip0_30_178">
<rect width="50" height="50" fill="white"/>
</clipPath>
</defs>
</svg>
