<svg width="50" height="50" viewBox="0 0 50 50" fill="none" xmlns="http://www.w3.org/2000/svg">
<path d="M13.0416 44.5582H12.5C10.5354 44.5582 9.55412 44.5582 8.94371 43.9478C8.33329 43.3415 8.33329 42.3582 8.33329 40.3936V38.0769C8.33329 36.9978 8.33329 36.4582 8.61037 35.9748C8.88746 35.4936 9.30621 35.2498 10.1437 34.7623C15.6562 31.5561 23.4833 29.7519 28.7062 32.8665C29.0562 33.0769 29.3729 33.3311 29.6437 33.6332C29.9235 33.9398 30.139 34.2994 30.2776 34.6907C30.4162 35.082 30.4749 35.4971 30.4505 35.9115C30.426 36.3259 30.3188 36.7311 30.1351 37.1034C29.9515 37.4757 29.6951 37.8074 29.3812 38.079C29.1308 38.317 28.8251 38.4888 28.4916 38.579C28.7416 38.5498 28.9812 38.5165 29.2104 38.4811C31.1083 38.179 32.702 37.1623 34.1604 36.0603L37.927 33.2165C38.599 32.7277 39.4086 32.4644 40.2395 32.4644C41.0705 32.4644 41.8801 32.7277 42.552 33.2165C43.7458 34.1186 44.1125 35.604 43.3562 36.8165C42.475 38.229 41.2333 40.0353 40.0416 41.1394C38.8479 42.2436 37.0708 43.2311 35.6208 43.9311C34.0125 44.7082 32.2375 45.154 30.4312 45.4478C26.7687 46.0394 22.952 45.9478 19.327 45.2019C17.2589 44.7767 15.153 44.5596 13.0416 44.5582ZM22.627 7.00609C23.6833 5.11234 24.2104 4.1665 25 4.1665C25.7895 4.1665 26.3166 5.11234 27.3729 7.00609L27.6437 7.49567C27.9458 8.03525 28.0958 8.304 28.3291 8.48109C28.5625 8.65817 28.8541 8.72484 29.4375 8.85609L29.9666 8.97692C32.0166 9.43942 33.0416 9.67275 33.2854 10.4561C33.5291 11.2394 32.8312 12.0582 31.4333 13.6915L31.0708 14.1144C30.675 14.579 30.477 14.8103 30.3875 15.0978C30.2979 15.3853 30.327 15.6957 30.3875 16.3144L30.4416 16.8769C30.6541 19.0582 30.7583 20.1478 30.1208 20.6332C29.4833 21.1186 28.5229 20.6748 26.6041 19.7915L26.1062 19.5623C25.5625 19.3123 25.2895 19.1873 25 19.1873C24.7104 19.1873 24.4375 19.3123 23.8937 19.5623L23.3958 19.7915C21.4791 20.6769 20.5166 21.1186 19.8791 20.6332C19.2416 20.1478 19.3458 19.0582 19.5583 16.879L19.6125 16.3144C19.6729 15.6957 19.702 15.3853 19.6125 15.0978C19.5229 14.8103 19.325 14.5769 18.9291 14.1144L18.5666 13.6915C17.1708 12.0582 16.4708 11.2394 16.7145 10.4561C16.9583 9.67275 17.9833 9.43942 20.0333 8.97692L20.5625 8.85609C21.1458 8.72484 21.4375 8.65817 21.6708 8.48109C21.9041 8.304 22.0541 8.03525 22.3541 7.49567L22.627 7.00609ZM40.4791 16.004C41.0083 15.0561 41.2708 14.5832 41.6666 14.5832C42.0625 14.5832 42.325 15.0561 42.8541 16.004L42.9895 16.2478C43.1395 16.5186 43.2145 16.6519 43.3312 16.7415C43.4479 16.829 43.5937 16.8623 43.8854 16.929L44.15 16.9873C45.175 17.2207 45.6875 17.3353 45.8083 17.729C45.9312 18.1207 45.5812 18.529 44.8833 19.3457L44.702 19.5561C44.5041 19.7894 44.4041 19.9061 44.3604 20.0498C44.3145 20.1915 44.3312 20.3478 44.3604 20.6582L44.3875 20.9394C44.4916 22.029 44.5458 22.5748 44.227 22.8165C43.9083 23.0582 43.4291 22.8373 42.4687 22.3957L42.2187 22.2811C41.9479 22.1561 41.8104 22.0936 41.6666 22.0936C41.5208 22.0936 41.3854 22.1561 41.1125 22.2811L40.8645 22.3957C39.9062 22.8373 39.427 23.0582 39.1062 22.8165C38.7875 22.5748 38.8395 22.029 38.9458 20.9394L38.9729 20.6582C39.002 20.3457 39.0187 20.1915 38.9729 20.0498C38.9291 19.904 38.8291 19.7894 38.6312 19.5561L38.45 19.3457C37.752 18.529 37.402 18.1207 37.525 17.729C37.6458 17.3353 38.1583 17.2207 39.1833 16.9873L39.4479 16.929C39.7395 16.8623 39.8854 16.829 40.002 16.7415C40.1187 16.6519 40.1937 16.5165 40.3437 16.2478L40.4791 16.004ZM7.14579 16.004C7.67704 15.0561 7.93746 14.5832 8.33329 14.5832C8.72912 14.5832 8.99162 15.0561 9.52079 16.004L9.65621 16.2478C9.80621 16.5186 9.88121 16.6519 9.99787 16.7415C10.1145 16.829 10.2604 16.8623 10.552 16.929L10.8166 16.9873C11.8416 17.2207 12.3541 17.3353 12.477 17.729C12.5979 18.1207 12.2479 18.529 11.55 19.3457L11.3687 19.5561C11.1708 19.7894 11.0708 19.9061 11.027 20.0498C10.9812 20.1915 10.9979 20.3478 11.027 20.6582L11.0541 20.9394C11.1583 22.029 11.2125 22.5748 10.8937 22.8165C10.575 23.0582 10.0937 22.8373 9.13537 22.3957L8.88537 22.2811C8.61454 22.1561 8.47704 22.0936 8.33329 22.0936C8.18746 22.0936 8.05204 22.1561 7.77912 22.2811L7.53121 22.3957C6.57287 22.8373 6.09371 23.0582 5.77287 22.8165C5.45412 22.5748 5.50621 22.029 5.61246 20.9394L5.63954 20.6582C5.66871 20.3457 5.68537 20.1915 5.63954 20.0498C5.59579 19.904 5.49579 19.7894 5.29787 19.5561L5.11662 19.3457C4.41871 18.529 4.06871 18.1207 4.18954 17.729C4.31246 17.3353 4.82496 17.2207 5.84996 16.9873L6.11454 16.929C6.40621 16.8623 6.55204 16.829 6.66871 16.7415C6.78537 16.6519 6.86037 16.5165 7.01037 16.2478L7.14579 16.004Z" fill="white"/>
</svg>
